<?xml version="1.0" encoding="utf-8" standalone="no"?>
<!DOCTYPE svg PUBLIC "-//W3C//DTD SVG 1.1//EN"
  "http://www.w3.org/Graphics/SVG/1.1/DTD/svg11.dtd">
<!-- Created with matplotlib (http://matplotlib.org/) -->
<svg height="288pt" version="1.1" viewBox="0 0 432 288" width="432pt" xmlns="http://www.w3.org/2000/svg" xmlns:xlink="http://www.w3.org/1999/xlink">
 <defs>
  <style type="text/css">
*{stroke-linecap:butt;stroke-linejoin:round;stroke-miterlimit:100000;}
  </style>
 </defs>
 <g id="figure_1">
  <g id="patch_1">
   <path d="M 0 288 
L 432 288 
L 432 0 
L 0 0 
z
" style="fill:#ffffff;"/>
  </g>
  <g id="patch_2">
   <path d="M 54 252 
L 388.8 252 
L 388.8 28.8 
L 54 28.8 
z
" style="fill:#ffffff;"/>
  </g>
  <g id="pane3d_1">
   <g id="patch_3">
    <path d="M 98.382914 202.680666 
L 194.204425 147.957083 
L 192.609099 43.389299 
L 91.44491 92.557312 
" style="fill:#f2f2f2;opacity:0.5;stroke:#f2f2f2;stroke-linejoin:miter;"/>
   </g>
  </g>
  <g id="pane3d_2">
   <g id="patch_4">
    <path d="M 194.204425 147.957083 
L 349.426265 178.551097 
L 355.920561 70.830114 
L 192.609099 43.389299 
" style="fill:#e6e6e6;opacity:0.5;stroke:#e6e6e6;stroke-linejoin:miter;"/>
   </g>
  </g>
  <g id="pane3d_3">
   <g id="patch_5">
    <path d="M 98.382914 202.680666 
L 261.697263 238.31238 
L 349.426265 178.551097 
L 194.204425 147.957083 
" style="fill:#ececec;opacity:0.5;stroke:#ececec;stroke-linejoin:miter;"/>
   </g>
  </g>
  <g id="axis3d_1">
   <g id="line2d_1">
    <path d="M 98.382914 202.680666 
L 261.697263 238.31238 
" style="fill:none;stroke:#000000;stroke-linecap:square;stroke-width:0.75;"/>
   </g>
   <g id="Line3DCollection_1">
    <path d="M 101.506055 203.362069 
L 197.18259 148.544076 
L 195.735788 43.914668 
" style="fill:none;stroke:#e6e6e6;"/>
    <path d="M 131.774921 209.966091 
L 226.026561 154.229183 
L 226.031751 49.005223 
" style="fill:none;stroke:#e6e6e6;"/>
    <path d="M 162.572656 216.685501 
L 255.337687 160.006366 
L 256.843506 54.182445 
" style="fill:none;stroke:#e6e6e6;"/>
    <path d="M 193.913242 223.52335 
L 285.127411 165.877881 
L 288.184338 59.448566 
" style="fill:none;stroke:#e6e6e6;"/>
    <path d="M 225.81116 230.482797 
L 315.407551 171.846055 
L 320.067993 64.805897 
" style="fill:none;stroke:#e6e6e6;"/>
    <path d="M 258.28141 237.567114 
L 346.190317 177.913296 
L 352.508697 70.256827 
" style="fill:none;stroke:#e6e6e6;"/>
   </g>
   <g id="xtick_1">
    <g id="line2d_2">
     <path d="M 102.330243 202.88985 
L 99.854611 204.308266 
" style="fill:none;stroke:#000000;stroke-linecap:square;"/>
    </g>
    <g id="text_1">
     <!-- 0.0 -->
     <defs>
      <path d="M 10.6875 12.40625 
L 21 12.40625 
L 21 0 
L 10.6875 0 
z
" id="BitstreamVeraSans-Roman-2e"/>
      <path d="M 31.78125 66.40625 
Q 24.171875 66.40625 20.328125 58.90625 
Q 16.5 51.421875 16.5 36.375 
Q 16.5 21.390625 20.328125 13.890625 
Q 24.171875 6.390625 31.78125 6.390625 
Q 39.453125 6.390625 43.28125 13.890625 
Q 47.125 21.390625 47.125 36.375 
Q 47.125 51.421875 43.28125 58.90625 
Q 39.453125 66.40625 31.78125 66.40625 
M 31.78125 74.21875 
Q 44.046875 74.21875 50.515625 64.515625 
Q 56.984375 54.828125 56.984375 36.375 
Q 56.984375 17.96875 50.515625 8.265625 
Q 44.046875 -1.421875 31.78125 -1.421875 
Q 19.53125 -1.421875 13.0625 8.265625 
Q 6.59375 17.96875 6.59375 36.375 
Q 6.59375 54.828125 13.0625 64.515625 
Q 19.53125 74.21875 31.78125 74.21875 
" id="BitstreamVeraSans-Roman-30"/>
     </defs>
     <g transform="translate(85.5549734914 224.496600357)scale(0.1 -0.1)">
      <use xlink:href="#BitstreamVeraSans-Roman-30"/>
      <use x="63.623046875" xlink:href="#BitstreamVeraSans-Roman-2e"/>
      <use x="95.41015625" xlink:href="#BitstreamVeraSans-Roman-30"/>
     </g>
    </g>
   </g>
   <g id="xtick_2">
    <g id="line2d_3">
     <path d="M 132.587336 209.48566 
L 130.147042 210.928758 
" style="fill:none;stroke:#000000;stroke-linecap:square;"/>
    </g>
    <g id="text_2">
     <!-- 0.2 -->
     <defs>
      <path d="M 19.1875 8.296875 
L 53.609375 8.296875 
L 53.609375 0 
L 7.328125 0 
L 7.328125 8.296875 
Q 12.9375 14.109375 22.625 23.890625 
Q 32.328125 33.6875 34.8125 36.53125 
Q 39.546875 41.84375 41.421875 45.53125 
Q 43.3125 49.21875 43.3125 52.78125 
Q 43.3125 58.59375 39.234375 62.25 
Q 35.15625 65.921875 28.609375 65.921875 
Q 23.96875 65.921875 18.8125 64.3125 
Q 13.671875 62.703125 7.8125 59.421875 
L 7.8125 69.390625 
Q 13.765625 71.78125 18.9375 73 
Q 24.125 74.21875 28.421875 74.21875 
Q 39.75 74.21875 46.484375 68.546875 
Q 53.21875 62.890625 53.21875 53.421875 
Q 53.21875 48.921875 51.53125 44.890625 
Q 49.859375 40.875 45.40625 35.40625 
Q 44.1875 33.984375 37.640625 27.21875 
Q 31.109375 20.453125 19.1875 8.296875 
" id="BitstreamVeraSans-Roman-32"/>
     </defs>
     <g transform="translate(115.819647152 231.232338088)scale(0.1 -0.1)">
      <use xlink:href="#BitstreamVeraSans-Roman-30"/>
      <use x="63.623046875" xlink:href="#BitstreamVeraSans-Roman-2e"/>
      <use x="95.41015625" xlink:href="#BitstreamVeraSans-Roman-32"/>
     </g>
    </g>
   </g>
   <g id="xtick_3">
    <g id="line2d_4">
     <path d="M 163.372758 216.196641 
L 160.969421 217.665073 
" style="fill:none;stroke:#000000;stroke-linecap:square;"/>
    </g>
    <g id="text_3">
     <!-- 0.4 -->
     <defs>
      <path d="M 37.796875 64.3125 
L 12.890625 25.390625 
L 37.796875 25.390625 
z
M 35.203125 72.90625 
L 47.609375 72.90625 
L 47.609375 25.390625 
L 58.015625 25.390625 
L 58.015625 17.1875 
L 47.609375 17.1875 
L 47.609375 0 
L 37.796875 0 
L 37.796875 17.1875 
L 4.890625 17.1875 
L 4.890625 26.703125 
z
" id="BitstreamVeraSans-Roman-34"/>
     </defs>
     <g transform="translate(146.614265597 238.08602089)scale(0.1 -0.1)">
      <use xlink:href="#BitstreamVeraSans-Roman-30"/>
      <use x="63.623046875" xlink:href="#BitstreamVeraSans-Roman-2e"/>
      <use x="95.41015625" xlink:href="#BitstreamVeraSans-Roman-34"/>
     </g>
    </g>
   </g>
   <g id="xtick_4">
    <g id="line2d_5">
     <path d="M 194.70047 223.025838 
L 192.335778 224.520275 
" style="fill:none;stroke:#000000;stroke-linecap:square;"/>
    </g>
    <g id="text_4">
     <!-- 0.6 -->
     <defs>
      <path d="M 33.015625 40.375 
Q 26.375 40.375 22.484375 35.828125 
Q 18.609375 31.296875 18.609375 23.390625 
Q 18.609375 15.53125 22.484375 10.953125 
Q 26.375 6.390625 33.015625 6.390625 
Q 39.65625 6.390625 43.53125 10.953125 
Q 47.40625 15.53125 47.40625 23.390625 
Q 47.40625 31.296875 43.53125 35.828125 
Q 39.65625 40.375 33.015625 40.375 
M 52.59375 71.296875 
L 52.59375 62.3125 
Q 48.875 64.0625 45.09375 64.984375 
Q 41.3125 65.921875 37.59375 65.921875 
Q 27.828125 65.921875 22.671875 59.328125 
Q 17.53125 52.734375 16.796875 39.40625 
Q 19.671875 43.65625 24.015625 45.921875 
Q 28.375 48.1875 33.59375 48.1875 
Q 44.578125 48.1875 50.953125 41.515625 
Q 57.328125 34.859375 57.328125 23.390625 
Q 57.328125 12.15625 50.6875 5.359375 
Q 44.046875 -1.421875 33.015625 -1.421875 
Q 20.359375 -1.421875 13.671875 8.265625 
Q 6.984375 17.96875 6.984375 36.375 
Q 6.984375 53.65625 15.1875 63.9375 
Q 23.390625 74.21875 37.203125 74.21875 
Q 40.921875 74.21875 44.703125 73.484375 
Q 48.484375 72.75 52.59375 71.296875 
" id="BitstreamVeraSans-Roman-36"/>
     </defs>
     <g transform="translate(177.952871042 245.060774013)scale(0.1 -0.1)">
      <use xlink:href="#BitstreamVeraSans-Roman-30"/>
      <use x="63.623046875" xlink:href="#BitstreamVeraSans-Roman-2e"/>
      <use x="95.41015625" xlink:href="#BitstreamVeraSans-Roman-36"/>
     </g>
    </g>
   </g>
   <g id="xtick_5">
    <g id="line2d_6">
     <path d="M 226.584928 229.976401 
L 224.260641 231.49754 
" style="fill:none;stroke:#000000;stroke-linecap:square;"/>
    </g>
    <g id="text_5">
     <!-- 0.8 -->
     <defs>
      <path d="M 31.78125 34.625 
Q 24.75 34.625 20.71875 30.859375 
Q 16.703125 27.09375 16.703125 20.515625 
Q 16.703125 13.921875 20.71875 10.15625 
Q 24.75 6.390625 31.78125 6.390625 
Q 38.8125 6.390625 42.859375 10.171875 
Q 46.921875 13.96875 46.921875 20.515625 
Q 46.921875 27.09375 42.890625 30.859375 
Q 38.875 34.625 31.78125 34.625 
M 21.921875 38.8125 
Q 15.578125 40.375 12.03125 44.71875 
Q 8.5 49.078125 8.5 55.328125 
Q 8.5 64.0625 14.71875 69.140625 
Q 20.953125 74.21875 31.78125 74.21875 
Q 42.671875 74.21875 48.875 69.140625 
Q 55.078125 64.0625 55.078125 55.328125 
Q 55.078125 49.078125 51.53125 44.71875 
Q 48 40.375 41.703125 38.8125 
Q 48.828125 37.15625 52.796875 32.3125 
Q 56.78125 27.484375 56.78125 20.515625 
Q 56.78125 9.90625 50.3125 4.234375 
Q 43.84375 -1.421875 31.78125 -1.421875 
Q 19.734375 -1.421875 13.25 4.234375 
Q 6.78125 9.90625 6.78125 20.515625 
Q 6.78125 27.484375 10.78125 32.3125 
Q 14.796875 37.15625 21.921875 38.8125 
M 18.3125 54.390625 
Q 18.3125 48.734375 21.84375 45.5625 
Q 25.390625 42.390625 31.78125 42.390625 
Q 38.140625 42.390625 41.71875 45.5625 
Q 45.3125 48.734375 45.3125 54.390625 
Q 45.3125 60.0625 41.71875 63.234375 
Q 38.140625 66.40625 31.78125 66.40625 
Q 25.390625 66.40625 21.84375 63.234375 
Q 18.3125 60.0625 18.3125 54.390625 
" id="BitstreamVeraSans-Roman-38"/>
     </defs>
     <g transform="translate(209.850006231 252.159834106)scale(0.1 -0.1)">
      <use xlink:href="#BitstreamVeraSans-Roman-30"/>
      <use x="63.623046875" xlink:href="#BitstreamVeraSans-Roman-2e"/>
      <use x="95.41015625" xlink:href="#BitstreamVeraSans-Roman-38"/>
     </g>
    </g>
   </g>
   <g id="xtick_6">
    <g id="line2d_7">
     <path d="M 259.041105 237.051594 
L 256.759063 238.600158 
" style="fill:none;stroke:#000000;stroke-linecap:square;"/>
    </g>
    <g id="text_6">
     <!-- 1.0 -->
     <defs>
      <path d="M 12.40625 8.296875 
L 28.515625 8.296875 
L 28.515625 63.921875 
L 10.984375 60.40625 
L 10.984375 69.390625 
L 28.421875 72.90625 
L 38.28125 72.90625 
L 38.28125 8.296875 
L 54.390625 8.296875 
L 54.390625 0 
L 12.40625 0 
z
" id="BitstreamVeraSans-Roman-31"/>
     </defs>
     <g transform="translate(242.320736946 259.386554224)scale(0.1 -0.1)">
      <use xlink:href="#BitstreamVeraSans-Roman-31"/>
      <use x="63.623046875" xlink:href="#BitstreamVeraSans-Roman-2e"/>
      <use x="95.41015625" xlink:href="#BitstreamVeraSans-Roman-30"/>
     </g>
    </g>
   </g>
  </g>
  <g id="axis3d_2">
   <g id="line2d_8">
    <path d="M 349.426265 178.551097 
L 261.697263 238.31238 
" style="fill:none;stroke:#000000;stroke-linecap:square;stroke-width:0.75;"/>
   </g>
   <g id="Line3DCollection_2">
    <path d="M 93.629722 91.495446 
L 100.444461 201.503318 
L 263.590908 237.022423 
" style="fill:none;stroke:#e6e6e6;"/>
    <path d="M 118.102629 79.601076 
L 123.560333 188.301863 
L 284.805389 222.571049 
" style="fill:none;stroke:#e6e6e6;"/>
    <path d="M 141.696869 68.133758 
L 145.887555 175.550806 
L 305.263499 208.634918 
" style="fill:none;stroke:#e6e6e6;"/>
    <path d="M 164.458929 57.070898 
L 167.465809 163.227484 
L 325.004979 195.186957 
" style="fill:none;stroke:#e6e6e6;"/>
    <path d="M 186.432072 46.391469 
L 188.332159 151.31073 
L 344.066836 182.201958 
" style="fill:none;stroke:#e6e6e6;"/>
   </g>
   <g id="xtick_7">
    <g id="line2d_9">
     <path d="M 262.225303 236.725113 
L 266.32518 237.61771 
" style="fill:none;stroke:#000000;stroke-linecap:square;"/>
    </g>
    <g id="text_7">
     <!-- 0 -->
     <g transform="translate(274.335469555 256.544649534)scale(0.1 -0.1)">
      <use xlink:href="#BitstreamVeraSans-Roman-30"/>
     </g>
    </g>
   </g>
   <g id="xtick_8">
    <g id="line2d_10">
     <path d="M 283.456784 222.284432 
L 287.50557 223.144915 
" style="fill:none;stroke:#000000;stroke-linecap:square;"/>
    </g>
    <g id="text_8">
     <!-- 5 -->
     <defs>
      <path d="M 10.796875 72.90625 
L 49.515625 72.90625 
L 49.515625 64.59375 
L 19.828125 64.59375 
L 19.828125 46.734375 
Q 21.96875 47.46875 24.109375 47.828125 
Q 26.265625 48.1875 28.421875 48.1875 
Q 40.625 48.1875 47.75 41.5 
Q 54.890625 34.8125 54.890625 23.390625 
Q 54.890625 11.625 47.5625 5.09375 
Q 40.234375 -1.421875 26.90625 -1.421875 
Q 22.3125 -1.421875 17.546875 -0.640625 
Q 12.796875 0.140625 7.71875 1.703125 
L 7.71875 11.625 
Q 12.109375 9.234375 16.796875 8.0625 
Q 21.484375 6.890625 26.703125 6.890625 
Q 35.15625 6.890625 40.078125 11.328125 
Q 45.015625 15.765625 45.015625 23.390625 
Q 45.015625 31 40.078125 35.4375 
Q 35.15625 39.890625 26.703125 39.890625 
Q 22.75 39.890625 18.8125 39.015625 
Q 14.890625 38.140625 10.796875 36.28125 
z
" id="BitstreamVeraSans-Roman-35"/>
     </defs>
     <g transform="translate(295.284922634 241.885440515)scale(0.1 -0.1)">
      <use xlink:href="#BitstreamVeraSans-Roman-35"/>
     </g>
    </g>
   </g>
   <g id="xtick_9">
    <g id="line2d_11">
     <path d="M 303.931559 208.358427 
L 307.930259 209.188499 
" style="fill:none;stroke:#000000;stroke-linecap:square;"/>
    </g>
    <g id="text_9">
     <!-- 10 -->
     <g transform="translate(312.306632548 227.748584004)scale(0.1 -0.1)">
      <use xlink:href="#BitstreamVeraSans-Roman-31"/>
      <use x="63.623046875" xlink:href="#BitstreamVeraSans-Roman-30"/>
     </g>
    </g>
   </g>
   <g id="xtick_10">
    <g id="line2d_12">
     <path d="M 323.689375 194.920065 
L 327.638983 195.721309 
" style="fill:none;stroke:#000000;stroke-linecap:square;"/>
    </g>
    <g id="text_10">
     <!-- 15 -->
     <g transform="translate(331.802300622 214.106649192)scale(0.1 -0.1)">
      <use xlink:href="#BitstreamVeraSans-Roman-31"/>
      <use x="63.623046875" xlink:href="#BitstreamVeraSans-Roman-35"/>
     </g>
    </g>
   </g>
   <g id="xtick_11">
    <g id="line2d_13">
     <path d="M 342.767242 181.944173 
L 346.668739 182.718066 
" style="fill:none;stroke:#000000;stroke-linecap:square;"/>
    </g>
    <g id="text_11">
     <!-- 20 -->
     <g transform="translate(350.627180578 200.934092898)scale(0.1 -0.1)">
      <use xlink:href="#BitstreamVeraSans-Roman-32"/>
      <use x="63.623046875" xlink:href="#BitstreamVeraSans-Roman-30"/>
     </g>
    </g>
   </g>
  </g>
  <g id="axis3d_3">
   <g id="line2d_14">
    <path d="M 349.426265 178.551097 
L 355.920561 70.830114 
" style="fill:none;stroke:#000000;stroke-linecap:square;stroke-width:0.75;"/>
   </g>
   <g id="Line3DCollection_3">
    <path d="M 350.045757 168.275577 
L 194.051947 137.962674 
L 97.722126 192.19233 
" style="fill:none;stroke:#e6e6e6;"/>
    <path d="M 351.068289 151.314818 
L 193.800404 121.475008 
L 96.630957 174.872765 
" style="fill:none;stroke:#e6e6e6;"/>
    <path d="M 352.107809 134.072287 
L 193.54486 104.725025 
L 95.521054 157.255846 
" style="fill:none;stroke:#e6e6e6;"/>
    <path d="M 353.164743 116.540904 
L 193.285218 87.706414 
L 94.39193 139.333847 
" style="fill:none;stroke:#e6e6e6;"/>
    <path d="M 354.239533 98.713348 
L 193.021378 70.412661 
L 93.243082 121.098775 
" style="fill:none;stroke:#e6e6e6;"/>
    <path d="M 355.332635 80.58205 
L 192.753237 52.83704 
L 92.073988 102.542353 
" style="fill:none;stroke:#e6e6e6;"/>
   </g>
   <g id="xtick_12">
    <g id="line2d_15">
     <path d="M 348.743997 168.022617 
L 352.651997 168.782024 
" style="fill:none;stroke:#000000;stroke-linecap:square;"/>
    </g>
    <g id="text_12">
     <!-- −40 -->
     <defs>
      <path d="M 10.59375 35.5 
L 73.1875 35.5 
L 73.1875 27.203125 
L 10.59375 27.203125 
z
" id="BitstreamVeraSans-Roman-2212"/>
     </defs>
     <g transform="translate(359.61431413 173.966834289)scale(0.1 -0.1)">
      <use xlink:href="#BitstreamVeraSans-Roman-2212"/>
      <use x="83.7890625" xlink:href="#BitstreamVeraSans-Roman-34"/>
      <use x="147.412109375" xlink:href="#BitstreamVeraSans-Roman-30"/>
     </g>
    </g>
   </g>
   <g id="xtick_13">
    <g id="line2d_16">
     <path d="M 349.75545 151.065722 
L 353.696733 151.813536 
" style="fill:none;stroke:#000000;stroke-linecap:square;"/>
    </g>
    <g id="text_13">
     <!-- −30 -->
     <defs>
      <path d="M 40.578125 39.3125 
Q 47.65625 37.796875 51.625 33 
Q 55.609375 28.21875 55.609375 21.1875 
Q 55.609375 10.40625 48.1875 4.484375 
Q 40.765625 -1.421875 27.09375 -1.421875 
Q 22.515625 -1.421875 17.65625 -0.515625 
Q 12.796875 0.390625 7.625 2.203125 
L 7.625 11.71875 
Q 11.71875 9.328125 16.59375 8.109375 
Q 21.484375 6.890625 26.8125 6.890625 
Q 36.078125 6.890625 40.9375 10.546875 
Q 45.796875 14.203125 45.796875 21.1875 
Q 45.796875 27.640625 41.28125 31.265625 
Q 36.765625 34.90625 28.71875 34.90625 
L 20.21875 34.90625 
L 20.21875 43.015625 
L 29.109375 43.015625 
Q 36.375 43.015625 40.234375 45.921875 
Q 44.09375 48.828125 44.09375 54.296875 
Q 44.09375 59.90625 40.109375 62.90625 
Q 36.140625 65.921875 28.71875 65.921875 
Q 24.65625 65.921875 20.015625 65.03125 
Q 15.375 64.15625 9.8125 62.3125 
L 9.8125 71.09375 
Q 15.4375 72.65625 20.34375 73.4375 
Q 25.25 74.21875 29.59375 74.21875 
Q 40.828125 74.21875 47.359375 69.109375 
Q 53.90625 64.015625 53.90625 55.328125 
Q 53.90625 49.265625 50.4375 45.09375 
Q 46.96875 40.921875 40.578125 39.3125 
" id="BitstreamVeraSans-Roman-33"/>
     </defs>
     <g transform="translate(360.799464681 157.035236956)scale(0.1 -0.1)">
      <use xlink:href="#BitstreamVeraSans-Roman-2212"/>
      <use x="83.7890625" xlink:href="#BitstreamVeraSans-Roman-33"/>
      <use x="147.412109375" xlink:href="#BitstreamVeraSans-Roman-30"/>
     </g>
    </g>
   </g>
   <g id="xtick_14">
    <g id="line2d_17">
     <path d="M 350.783701 133.827218 
L 354.758837 134.562947 
" style="fill:none;stroke:#000000;stroke-linecap:square;"/>
    </g>
    <g id="text_14">
     <!-- −20 -->
     <g transform="translate(362.004251882 139.82310157)scale(0.1 -0.1)">
      <use xlink:href="#BitstreamVeraSans-Roman-2212"/>
      <use x="83.7890625" xlink:href="#BitstreamVeraSans-Roman-32"/>
      <use x="147.412109375" xlink:href="#BitstreamVeraSans-Roman-30"/>
     </g>
    </g>
   </g>
   <g id="xtick_15">
    <g id="line2d_18">
     <path d="M 351.829172 116.300031 
L 355.838747 117.023164 
" style="fill:none;stroke:#000000;stroke-linecap:square;"/>
    </g>
    <g id="text_15">
     <!-- −10 -->
     <g transform="translate(363.229167844 122.32339757)scale(0.1 -0.1)">
      <use xlink:href="#BitstreamVeraSans-Roman-2212"/>
      <use x="83.7890625" xlink:href="#BitstreamVeraSans-Roman-31"/>
      <use x="147.412109375" xlink:href="#BitstreamVeraSans-Roman-30"/>
     </g>
    </g>
   </g>
   <g id="xtick_16">
    <g id="line2d_19">
     <path d="M 352.892298 98.47685 
L 356.936914 99.186853 
" style="fill:none;stroke:#000000;stroke-linecap:square;"/>
    </g>
    <g id="text_16">
     <!-- 0 -->
     <g transform="translate(371.845815015 104.528857499)scale(0.1 -0.1)">
      <use xlink:href="#BitstreamVeraSans-Roman-30"/>
     </g>
    </g>
   </g>
   <g id="xtick_17">
    <g id="line2d_20">
     <path d="M 353.97353 80.350112 
L 358.053804 81.046431 
" style="fill:none;stroke:#000000;stroke-linecap:square;"/>
    </g>
    <g id="text_17">
     <!-- 10 -->
     <g transform="translate(369.931281877 86.4319669296)scale(0.1 -0.1)">
      <use xlink:href="#BitstreamVeraSans-Roman-31"/>
      <use x="63.623046875" xlink:href="#BitstreamVeraSans-Roman-30"/>
     </g>
    </g>
   </g>
  </g>
  <g id="axes_1">
   <g id="Path3DCollection_1">
    <defs>
     <path d="M 0 2.236068 
C 0.593012 2.236068 1.161816 2.000462 1.581139 1.581139 
C 2.000462 1.161816 2.236068 0.593012 2.236068 0 
C 2.236068 -0.593012 2.000462 -1.161816 1.581139 -1.581139 
C 1.161816 -2.000462 0.593012 -2.236068 0 -2.236068 
C -0.593012 -2.236068 -1.161816 -2.000462 -1.581139 -1.581139 
C -2.000462 -1.161816 -2.236068 -0.593012 -2.236068 0 
C -2.236068 0.593012 -2.000462 1.161816 -1.581139 1.581139 
C -1.161816 2.000462 -0.593012 2.236068 0 2.236068 
z
" id="C0_0_11b239b9b9"/>
    </defs>
    <g clip-path="url(#p4912aba779)">
     <use style="fill:#800000;fill-opacity:0.801720774501;stroke:#000000;stroke-opacity:0.801720774501;" x="237.45489764" xlink:href="#C0_0_11b239b9b9" y="73.1793707629"/>
    </g>
    <g clip-path="url(#p4912aba779)">
     <use style="fill:#800000;fill-opacity:0.722212618016;stroke:#000000;stroke-opacity:0.722212618016;" x="242.746527313" xlink:href="#C0_0_11b239b9b9" y="73.5693367412"/>
    </g>
    <g clip-path="url(#p4912aba779)">
     <use style="fill:#800000;fill-opacity:0.722212618016;stroke:#000000;stroke-opacity:0.722212618016;" x="242.746527313" xlink:href="#C0_0_11b239b9b9" y="73.5693367412"/>
    </g>
    <g clip-path="url(#p4912aba779)">
     <use style="fill:#800000;fill-opacity:0.64592298912;stroke:#000000;stroke-opacity:0.64592298912;" x="240.151094248" xlink:href="#C0_0_11b239b9b9" y="91.819396573"/>
    </g>
    <g clip-path="url(#p4912aba779)">
     <use style="fill:#800000;fill-opacity:0.64592298912;stroke:#000000;stroke-opacity:0.64592298912;" x="240.151094248" xlink:href="#C0_0_11b239b9b9" y="91.819396573"/>
    </g>
    <g clip-path="url(#p4912aba779)">
     <use style="fill:#800000;fill-opacity:0.685290030291;stroke:#000000;stroke-opacity:0.685290030291;" x="236.52507603" xlink:href="#C0_0_11b239b9b9" y="99.620498899"/>
    </g>
    <g clip-path="url(#p4912aba779)">
     <use style="fill:#800000;fill-opacity:0.584708062549;stroke:#000000;stroke-opacity:0.584708062549;" x="241.754293812" xlink:href="#C0_0_11b239b9b9" y="115.239810746"/>
    </g>
    <g clip-path="url(#p4912aba779)">
     <use style="fill:#800000;fill-opacity:0.690017603085;stroke:#000000;stroke-opacity:0.690017603085;" x="228.589272673" xlink:href="#C0_0_11b239b9b9" y="122.498913627"/>
    </g>
    <g clip-path="url(#p4912aba779)">
     <use style="fill:#800000;fill-opacity:0.588485664307;stroke:#000000;stroke-opacity:0.588485664307;" x="238.570413619" xlink:href="#C0_0_11b239b9b9" y="118.078050996"/>
    </g>
    <g clip-path="url(#p4912aba779)">
     <use style="fill:#800000;fill-opacity:0.588485664307;stroke:#000000;stroke-opacity:0.588485664307;" x="238.570413619" xlink:href="#C0_0_11b239b9b9" y="118.078050996"/>
    </g>
    <g clip-path="url(#p4912aba779)">
     <use style="fill:#800000;fill-opacity:0.611321758935;stroke:#000000;stroke-opacity:0.611321758935;" x="237.94672768" xlink:href="#C0_0_11b239b9b9" y="122.738891326"/>
    </g>
    <g clip-path="url(#p4912aba779)">
     <use style="fill:#800000;fill-opacity:0.608516966381;stroke:#000000;stroke-opacity:0.608516966381;" x="235.307577982" xlink:href="#C0_0_11b239b9b9" y="123.909648841"/>
    </g>
    <g clip-path="url(#p4912aba779)">
     <use style="fill:#800000;fill-opacity:0.645502750732;stroke:#000000;stroke-opacity:0.645502750732;" x="230.033215441" xlink:href="#C0_0_11b239b9b9" y="126.994082596"/>
    </g>
    <g clip-path="url(#p4912aba779)">
     <use style="fill:#800000;fill-opacity:0.555557903662;stroke:#000000;stroke-opacity:0.555557903662;" x="243.130055237" xlink:href="#C0_0_11b239b9b9" y="122.0288251"/>
    </g>
    <g clip-path="url(#p4912aba779)">
     <use style="fill:#840000;fill-opacity:0.516710531869;stroke:#000000;stroke-opacity:0.516710531869;" x="243.996379015" xlink:href="#C0_0_11b239b9b9" y="122.044118591"/>
    </g>
    <g clip-path="url(#p4912aba779)">
     <use style="fill:#840000;fill-opacity:0.668744507678;stroke:#000000;stroke-opacity:0.668744507678;" x="225.334120533" xlink:href="#C0_0_11b239b9b9" y="133.545379524"/>
    </g>
    <g clip-path="url(#p4912aba779)">
     <use style="fill:#840000;fill-opacity:0.649717634114;stroke:#000000;stroke-opacity:0.649717634114;" x="231.054561184" xlink:href="#C0_0_11b239b9b9" y="133.377649062"/>
    </g>
    <g clip-path="url(#p4912aba779)">
     <use style="fill:#840000;fill-opacity:0.714268647417;stroke:#000000;stroke-opacity:0.714268647417;" x="223.485543261" xlink:href="#C0_0_11b239b9b9" y="137.980539746"/>
    </g>
    <g clip-path="url(#p4912aba779)">
     <use style="fill:#840000;fill-opacity:0.869340589709;stroke:#000000;stroke-opacity:0.869340589709;" x="207.871299096" xlink:href="#C0_0_11b239b9b9" y="149.895758966"/>
    </g>
    <g clip-path="url(#p4912aba779)">
     <use style="fill:#840000;fill-opacity:0.869340589709;stroke:#000000;stroke-opacity:0.869340589709;" x="207.871299096" xlink:href="#C0_0_11b239b9b9" y="149.895758966"/>
    </g>
    <g clip-path="url(#p4912aba779)">
     <use style="fill:#840000;fill-opacity:0.869340589709;stroke:#000000;stroke-opacity:0.869340589709;" x="207.871299096" xlink:href="#C0_0_11b239b9b9" y="149.895758966"/>
    </g>
    <g clip-path="url(#p4912aba779)">
     <use style="fill:#840000;fill-opacity:0.604577517511;stroke:#000000;stroke-opacity:0.604577517511;" x="234.859873056" xlink:href="#C0_0_11b239b9b9" y="133.933424787"/>
    </g>
    <g clip-path="url(#p4912aba779)">
     <use style="fill:#840000;fill-opacity:0.836133407498;stroke:#000000;stroke-opacity:0.836133407498;" x="208.505812522" xlink:href="#C0_0_11b239b9b9" y="149.986270349"/>
    </g>
    <g clip-path="url(#p4912aba779)">
     <use style="fill:#840000;fill-opacity:0.836133407498;stroke:#000000;stroke-opacity:0.836133407498;" x="208.505812522" xlink:href="#C0_0_11b239b9b9" y="149.986270349"/>
    </g>
    <g clip-path="url(#p4912aba779)">
     <use style="fill:#840000;fill-opacity:0.795489263439;stroke:#000000;stroke-opacity:0.795489263439;" x="211.231222304" xlink:href="#C0_0_11b239b9b9" y="147.512515185"/>
    </g>
    <g clip-path="url(#p4912aba779)">
     <use style="fill:#840000;fill-opacity:0.498654151171;stroke:#000000;stroke-opacity:0.498654151171;" x="237.482995804" xlink:href="#C0_0_11b239b9b9" y="128.405104214"/>
    </g>
    <g clip-path="url(#p4912aba779)">
     <use style="fill:#840000;fill-opacity:0.527301772045;stroke:#000000;stroke-opacity:0.527301772045;" x="242.966456171" xlink:href="#C0_0_11b239b9b9" y="130.42927363"/>
    </g>
    <g clip-path="url(#p4912aba779)">
     <use style="fill:#840000;fill-opacity:0.527301772045;stroke:#000000;stroke-opacity:0.527301772045;" x="242.966456171" xlink:href="#C0_0_11b239b9b9" y="130.42927363"/>
    </g>
    <g clip-path="url(#p4912aba779)">
     <use style="fill:#840000;fill-opacity:0.924655504039;stroke:#000000;stroke-opacity:0.924655504039;" x="202.25979326" xlink:href="#C0_0_11b239b9b9" y="158.137592682"/>
    </g>
    <g clip-path="url(#p4912aba779)">
     <use style="fill:#840000;fill-opacity:0.856608146677;stroke:#000000;stroke-opacity:0.856608146677;" x="209.716732628" xlink:href="#C0_0_11b239b9b9" y="153.543476654"/>
    </g>
    <g clip-path="url(#p4912aba779)">
     <use style="fill:#840000;fill-opacity:0.710080576029;stroke:#000000;stroke-opacity:0.710080576029;" x="219.061478172" xlink:href="#C0_0_11b239b9b9" y="143.792569282"/>
    </g>
    <g clip-path="url(#p4912aba779)">
     <use style="fill:#840000;fill-opacity:0.543974963141;stroke:#000000;stroke-opacity:0.543974963141;" x="239.756738094" xlink:href="#C0_0_11b239b9b9" y="134.295482314"/>
    </g>
    <g clip-path="url(#p4912aba779)">
     <use style="fill:#840000;fill-opacity:0.793263824291;stroke:#000000;stroke-opacity:0.793263824291;" x="212.096674647" xlink:href="#C0_0_11b239b9b9" y="151.313901788"/>
    </g>
    <g clip-path="url(#p4912aba779)">
     <use style="fill:#840000;fill-opacity:0.834183801739;stroke:#000000;stroke-opacity:0.834183801739;" x="209.101157082" xlink:href="#C0_0_11b239b9b9" y="154.299594368"/>
    </g>
    <g clip-path="url(#p4912aba779)">
     <use style="fill:#840000;fill-opacity:0.843708632093;stroke:#000000;stroke-opacity:0.843708632093;" x="206.823355476" xlink:href="#C0_0_11b239b9b9" y="155.040369693"/>
    </g>
    <g clip-path="url(#p4912aba779)">
     <use style="fill:#840000;fill-opacity:0.953955252298;stroke:#000000;stroke-opacity:0.953955252298;" x="198.850798524" xlink:href="#C0_0_11b239b9b9" y="162.532430741"/>
    </g>
    <g clip-path="url(#p4912aba779)">
     <use style="fill:#840000;stroke:#000000;" x="195.18260983" xlink:href="#C0_0_11b239b9b9" y="167.01072386"/>
    </g>
    <g clip-path="url(#p4912aba779)">
     <use style="fill:#840000;fill-opacity:0.938936694829;stroke:#000000;stroke-opacity:0.938936694829;" x="200.586540708" xlink:href="#C0_0_11b239b9b9" y="162.93891694"/>
    </g>
    <g clip-path="url(#p4912aba779)">
     <use style="fill:#840000;fill-opacity:0.830203142754;stroke:#000000;stroke-opacity:0.830203142754;" x="210.657128429" xlink:href="#C0_0_11b239b9b9" y="155.630375821"/>
    </g>
    <g clip-path="url(#p4912aba779)">
     <use style="fill:#840000;fill-opacity:0.837624924989;stroke:#000000;stroke-opacity:0.837624924989;" x="209.08384504" xlink:href="#C0_0_11b239b9b9" y="156.755657294"/>
    </g>
    <g clip-path="url(#p4912aba779)">
     <use style="fill:#840000;fill-opacity:0.744336313551;stroke:#000000;stroke-opacity:0.744336313551;" x="214.602002122" xlink:href="#C0_0_11b239b9b9" y="150.5123994"/>
    </g>
    <g clip-path="url(#p4912aba779)">
     <use style="fill:#840000;fill-opacity:0.764487253769;stroke:#000000;stroke-opacity:0.764487253769;" x="214.326056487" xlink:href="#C0_0_11b239b9b9" y="153.139713977"/>
    </g>
    <g clip-path="url(#p4912aba779)">
     <use style="fill:#840000;fill-opacity:0.783340782527;stroke:#000000;stroke-opacity:0.783340782527;" x="213.15236627" xlink:href="#C0_0_11b239b9b9" y="154.75598073"/>
    </g>
    <g clip-path="url(#p4912aba779)">
     <use style="fill:#840000;fill-opacity:0.783340782527;stroke:#000000;stroke-opacity:0.783340782527;" x="213.15236627" xlink:href="#C0_0_11b239b9b9" y="154.75598073"/>
    </g>
    <g clip-path="url(#p4912aba779)">
     <use style="fill:#840000;fill-opacity:0.857088898912;stroke:#000000;stroke-opacity:0.857088898912;" x="207.775019882" xlink:href="#C0_0_11b239b9b9" y="160.08961766"/>
    </g>
    <g clip-path="url(#p4912aba779)">
     <use style="fill:#840000;fill-opacity:0.926977684945;stroke:#000000;stroke-opacity:0.926977684945;" x="201.529359484" xlink:href="#C0_0_11b239b9b9" y="165.694881852"/>
    </g>
    <g clip-path="url(#p4912aba779)">
     <use style="fill:#840000;fill-opacity:0.833677636525;stroke:#000000;stroke-opacity:0.833677636525;" x="210.304827704" xlink:href="#C0_0_11b239b9b9" y="161.624745044"/>
    </g>
    <g clip-path="url(#p4912aba779)">
     <use style="fill:#840000;fill-opacity:0.941118881649;stroke:#000000;stroke-opacity:0.941118881649;" x="198.516784696" xlink:href="#C0_0_11b239b9b9" y="170.545665225"/>
    </g>
    <g clip-path="url(#p4912aba779)">
     <use style="fill:#840000;fill-opacity:0.756328804777;stroke:#000000;stroke-opacity:0.756328804777;" x="215.018655873" xlink:href="#C0_0_11b239b9b9" y="157.92110654"/>
    </g>
    <g clip-path="url(#p4912aba779)">
     <use style="fill:#840000;fill-opacity:0.751206282978;stroke:#000000;stroke-opacity:0.751206282978;" x="215.633766391" xlink:href="#C0_0_11b239b9b9" y="157.569805903"/>
    </g>
    <g clip-path="url(#p4912aba779)">
     <use style="fill:#840000;fill-opacity:0.906475633881;stroke:#000000;stroke-opacity:0.906475633881;" x="197.690444529" xlink:href="#C0_0_11b239b9b9" y="168.915842521"/>
    </g>
    <g clip-path="url(#p4912aba779)">
     <use style="fill:#840000;fill-opacity:0.88293478568;stroke:#000000;stroke-opacity:0.88293478568;" x="199.189013681" xlink:href="#C0_0_11b239b9b9" y="167.803997234"/>
    </g>
    <g clip-path="url(#p4912aba779)">
     <use style="fill:#840000;fill-opacity:0.98854643603;stroke:#000000;stroke-opacity:0.98854643603;" x="190.621444614" xlink:href="#C0_0_11b239b9b9" y="177.14390081"/>
    </g>
    <g clip-path="url(#p4912aba779)">
     <use style="fill:#840000;fill-opacity:0.7708941806;stroke:#000000;stroke-opacity:0.7708941806;" x="211.930919553" xlink:href="#C0_0_11b239b9b9" y="167.185637831"/>
    </g>
    <g clip-path="url(#p4912aba779)">
     <use style="fill:#840000;fill-opacity:0.725695459703;stroke:#000000;stroke-opacity:0.725695459703;" x="207.014918846" xlink:href="#C0_0_11b239b9b9" y="166.344231737"/>
    </g>
    <g clip-path="url(#p4912aba779)">
     <use style="fill:#840000;fill-opacity:0.724928616394;stroke:#000000;stroke-opacity:0.724928616394;" x="207.152637906" xlink:href="#C0_0_11b239b9b9" y="166.290867851"/>
    </g>
    <g clip-path="url(#p4912aba779)">
     <use style="fill:#840000;fill-opacity:0.751741903716;stroke:#000000;stroke-opacity:0.751741903716;" x="214.007972195" xlink:href="#C0_0_11b239b9b9" y="169.081406433"/>
    </g>
    <g clip-path="url(#p4912aba779)">
     <use style="fill:#840000;fill-opacity:0.906059615746;stroke:#000000;stroke-opacity:0.906059615746;" x="198.868627664" xlink:href="#C0_0_11b239b9b9" y="181.7826132"/>
    </g>
    <g clip-path="url(#p4912aba779)">
     <use style="fill:#840000;fill-opacity:0.935643211665;stroke:#000000;stroke-opacity:0.935643211665;" x="196.137462265" xlink:href="#C0_0_11b239b9b9" y="183.921736417"/>
    </g>
    <g clip-path="url(#p4912aba779)">
     <use style="fill:#890000;fill-opacity:0.681494329749;stroke:#000000;stroke-opacity:0.681494329749;" x="220.065488124" xlink:href="#C0_0_11b239b9b9" y="166.824225773"/>
    </g>
    <g clip-path="url(#p4912aba779)">
     <use style="fill:#890000;fill-opacity:0.543937451136;stroke:#000000;stroke-opacity:0.543937451136;" x="230.705504418" xlink:href="#C0_0_11b239b9b9" y="159.133333457"/>
    </g>
    <g clip-path="url(#p4912aba779)">
     <use style="fill:#890000;fill-opacity:0.474557475873;stroke:#000000;stroke-opacity:0.474557475873;" x="226.987322148" xlink:href="#C0_0_11b239b9b9" y="154.799253861"/>
    </g>
    <g clip-path="url(#p4912aba779)">
     <use style="fill:#890000;fill-opacity:0.856199414415;stroke:#000000;stroke-opacity:0.856199414415;" x="194.430806982" xlink:href="#C0_0_11b239b9b9" y="181.795338901"/>
    </g>
    <g clip-path="url(#p4912aba779)">
     <use style="fill:#890000;fill-opacity:0.879863669866;stroke:#000000;stroke-opacity:0.879863669866;" x="200.46738777" xlink:href="#C0_0_11b239b9b9" y="186.48026752"/>
    </g>
    <g clip-path="url(#p4912aba779)">
     <use style="fill:#890000;fill-opacity:0.765420301478;stroke:#000000;stroke-opacity:0.765420301478;" x="199.399613738" xlink:href="#C0_0_11b239b9b9" y="180.266178113"/>
    </g>
    <g clip-path="url(#p4912aba779)">
     <use style="fill:#890000;fill-opacity:0.87901051058;stroke:#000000;stroke-opacity:0.87901051058;" x="199.36270626" xlink:href="#C0_0_11b239b9b9" y="190.811606238"/>
    </g>
    <g clip-path="url(#p4912aba779)">
     <use style="fill:#890000;fill-opacity:0.895743019034;stroke:#000000;stroke-opacity:0.895743019034;" x="197.347620877" xlink:href="#C0_0_11b239b9b9" y="192.863091118"/>
    </g>
    <g clip-path="url(#p4912aba779)">
     <use style="fill:#890000;fill-opacity:0.514626281008;stroke:#000000;stroke-opacity:0.514626281008;" x="222.69717602" xlink:href="#C0_0_11b239b9b9" y="165.929188523"/>
    </g>
    <g clip-path="url(#p4912aba779)">
     <use style="fill:#890000;fill-opacity:0.523976773549;stroke:#000000;stroke-opacity:0.523976773549;" x="229.971046131" xlink:href="#C0_0_11b239b9b9" y="167.613382991"/>
    </g>
    <g clip-path="url(#p4912aba779)">
     <use style="fill:#890000;fill-opacity:0.460693791158;stroke:#000000;stroke-opacity:0.460693791158;" x="227.334952805" xlink:href="#C0_0_11b239b9b9" y="164.036768808"/>
    </g>
    <g clip-path="url(#p4912aba779)">
     <use style="fill:#890000;fill-opacity:0.358898584363;stroke:#000000;stroke-opacity:0.358898584363;" x="222.65703204" xlink:href="#C0_0_11b239b9b9" y="157.15638169"/>
    </g>
    <g clip-path="url(#p4912aba779)">
     <use style="fill:#890000;fill-opacity:0.802068251174;stroke:#000000;stroke-opacity:0.802068251174;" x="193.452876369" xlink:href="#C0_0_11b239b9b9" y="189.144700806"/>
    </g>
    <g clip-path="url(#p4912aba779)">
     <use style="fill:#890000;fill-opacity:0.741685506483;stroke:#000000;stroke-opacity:0.741685506483;" x="209.6490887" xlink:href="#C0_0_11b239b9b9" y="185.623813819"/>
    </g>
    <g clip-path="url(#p4912aba779)">
     <use style="fill:#890000;fill-opacity:0.570525064346;stroke:#000000;stroke-opacity:0.570525064346;" x="225.073654462" xlink:href="#C0_0_11b239b9b9" y="173.904381179"/>
    </g>
    <g clip-path="url(#p4912aba779)">
     <use style="fill:#890000;fill-opacity:0.500939832947;stroke:#000000;stroke-opacity:0.500939832947;" x="231.538850778" xlink:href="#C0_0_11b239b9b9" y="171.529256456"/>
    </g>
    <g clip-path="url(#p4912aba779)">
     <use style="fill:#890000;fill-opacity:0.454914660337;stroke:#000000;stroke-opacity:0.454914660337;" x="235.318497976" xlink:href="#C0_0_11b239b9b9" y="168.992607099"/>
    </g>
    <g clip-path="url(#p4912aba779)">
     <use style="fill:#890000;fill-opacity:0.416284865346;stroke:#000000;stroke-opacity:0.416284865346;" x="240.060815036" xlink:href="#C0_0_11b239b9b9" y="166.452117368"/>
    </g>
    <g clip-path="url(#p4912aba779)">
     <use style="fill:#890000;fill-opacity:0.322342300711;stroke:#000000;stroke-opacity:0.322342300711;" x="236.094370644" xlink:href="#C0_0_11b239b9b9" y="159.941142085"/>
    </g>
    <g clip-path="url(#p4912aba779)">
     <use style="fill:#890000;fill-opacity:0.689710260915;stroke:#000000;stroke-opacity:0.689710260915;" x="201.111301853" xlink:href="#C0_0_11b239b9b9" y="186.88926343"/>
    </g>
    <g clip-path="url(#p4912aba779)">
     <use style="fill:#890000;fill-opacity:0.669492121962;stroke:#000000;stroke-opacity:0.669492121962;" x="202.924298213" xlink:href="#C0_0_11b239b9b9" y="186.260714354"/>
    </g>
    <g clip-path="url(#p4912aba779)">
     <use style="fill:#890000;fill-opacity:0.3;stroke:#000000;stroke-opacity:0.3;" x="238.030548074" xlink:href="#C0_0_11b239b9b9" y="161.53646736"/>
    </g>
    <g clip-path="url(#p4912aba779)">
     <use style="fill:#890000;fill-opacity:0.3;stroke:#000000;stroke-opacity:0.3;" x="238.030548074" xlink:href="#C0_0_11b239b9b9" y="161.53646736"/>
    </g>
    <g clip-path="url(#p4912aba779)">
     <use style="fill:#890000;fill-opacity:0.676113976486;stroke:#000000;stroke-opacity:0.676113976486;" x="213.55610409" xlink:href="#C0_0_11b239b9b9" y="190.690930363"/>
    </g>
    <g clip-path="url(#p4912aba779)">
     <use style="fill:#890000;fill-opacity:0.344109362539;stroke:#000000;stroke-opacity:0.344109362539;" x="233.032828777" xlink:href="#C0_0_11b239b9b9" y="167.24445239"/>
    </g>
    <g clip-path="url(#p4912aba779)">
     <use style="fill:#890000;fill-opacity:0.64716317065;stroke:#000000;stroke-opacity:0.64716317065;" x="204.468797391" xlink:href="#C0_0_11b239b9b9" y="189.819217018"/>
    </g>
    <g clip-path="url(#p4912aba779)">
     <use style="fill:#890000;fill-opacity:0.418180731731;stroke:#000000;stroke-opacity:0.418180731731;" x="237.78333047" xlink:href="#C0_0_11b239b9b9" y="173.565444435"/>
    </g>
    <g clip-path="url(#p4912aba779)">
     <use style="fill:#890000;fill-opacity:0.483193651344;stroke:#000000;stroke-opacity:0.483193651344;" x="218.775621429" xlink:href="#C0_0_11b239b9b9" y="178.827908978"/>
    </g>
    <g clip-path="url(#p4912aba779)">
     <use style="fill:#890000;fill-opacity:0.3596244672;stroke:#000000;stroke-opacity:0.3596244672;" x="224.657945825" xlink:href="#C0_0_11b239b9b9" y="170.465885205"/>
    </g>
    <g clip-path="url(#p4912aba779)">
     <use style="fill:#890000;fill-opacity:0.676833403702;stroke:#000000;stroke-opacity:0.676833403702;" x="211.739592292" xlink:href="#C0_0_11b239b9b9" y="193.732309769"/>
    </g>
    <g clip-path="url(#p4912aba779)">
     <use style="fill:#890000;fill-opacity:0.343408718475;stroke:#000000;stroke-opacity:0.343408718475;" x="243.065520041" xlink:href="#C0_0_11b239b9b9" y="170.428848184"/>
    </g>
    <g clip-path="url(#p4912aba779)">
     <use style="fill:#890000;fill-opacity:0.663053206917;stroke:#000000;stroke-opacity:0.663053206917;" x="213.179482231" xlink:href="#C0_0_11b239b9b9" y="193.884327847"/>
    </g>
    <g clip-path="url(#p4912aba779)">
     <use style="fill:#890000;fill-opacity:0.636437321425;stroke:#000000;stroke-opacity:0.636437321425;" x="202.689249048" xlink:href="#C0_0_11b239b9b9" y="192.466057794"/>
    </g>
    <g clip-path="url(#p4912aba779)">
     <use style="fill:#890000;fill-opacity:0.436429946106;stroke:#000000;stroke-opacity:0.436429946106;" x="234.800254295" xlink:href="#C0_0_11b239b9b9" y="178.267005914"/>
    </g>
    <g clip-path="url(#p4912aba779)">
     <use style="fill:#890000;fill-opacity:0.649508233312;stroke:#000000;stroke-opacity:0.649508233312;" x="201.055678804" xlink:href="#C0_0_11b239b9b9" y="194.472978866"/>
    </g>
    <g clip-path="url(#p4912aba779)">
     <use style="fill:#890000;fill-opacity:0.360318541498;stroke:#000000;stroke-opacity:0.360318541498;" x="228.498610775" xlink:href="#C0_0_11b239b9b9" y="175.491101901"/>
    </g>
    <g clip-path="url(#p4912aba779)">
     <use style="fill:#890000;fill-opacity:0.713576680866;stroke:#000000;stroke-opacity:0.713576680866;" x="207.594289531" xlink:href="#C0_0_11b239b9b9" y="201.311596825"/>
    </g>
    <g clip-path="url(#p4912aba779)">
     <use style="fill:#8d0000;fill-opacity:0.676791805751;stroke:#000000;stroke-opacity:0.676791805751;" x="196.967892681" xlink:href="#C0_0_11b239b9b9" y="200.602502324"/>
    </g>
    <g clip-path="url(#p4912aba779)">
     <use style="fill:#8d0000;fill-opacity:0.354361555479;stroke:#000000;stroke-opacity:0.354361555479;" x="229.603515527" xlink:href="#C0_0_11b239b9b9" y="177.177141964"/>
    </g>
    <g clip-path="url(#p4912aba779)">
     <use style="fill:#8d0000;fill-opacity:0.310307962615;stroke:#000000;stroke-opacity:0.310307962615;" x="233.881671921" xlink:href="#C0_0_11b239b9b9" y="174.632022971"/>
    </g>
    <g clip-path="url(#p4912aba779)">
     <use style="fill:#8d0000;fill-opacity:0.314730785675;stroke:#000000;stroke-opacity:0.314730785675;" x="244.767493105" xlink:href="#C0_0_11b239b9b9" y="177.864027215"/>
    </g>
   </g>
  </g>
 </g>
 <defs>
  <clipPath id="p4912aba779">
   <rect height="223.2" width="334.8" x="54.0" y="28.8"/>
  </clipPath>
 </defs>
</svg>
